<svg width="30" height="30" viewBox="0 0 30 30" fill="none" xmlns="http://www.w3.org/2000/svg">
<path d="M21.25 4.17228C19.4114 3.10871 17.2768 2.5 15 2.5C8.09644 2.5 2.5 8.09644 2.5 15C2.5 16.9996 2.96952 18.8895 3.80432 20.5656C4.02617 21.011 4.10001 21.5201 3.9714 22.0007L3.22689 24.7834C2.90369 25.9913 4.00876 27.0963 5.21669 26.7731L7.99924 26.0286C8.47991 25.9 8.98901 25.9739 9.43441 26.1956C11.1105 27.0305 13.0004 27.5 15 27.5C21.9035 27.5 27.5 21.9035 27.5 15C27.5 12.7232 26.8913 10.5886 25.8278 8.75" stroke="white" stroke-width="3" stroke-linecap="round"/>
<path d="M10 15H10.0112M14.9888 15H15M19.9888 15H20" stroke="white" stroke-width="3" stroke-linecap="round" stroke-linejoin="round"/>
</svg>
