<svg width="30" height="30" viewBox="0 0 30 30" fill="none" xmlns="http://www.w3.org/2000/svg">
<path d="M15.032 5.65043C16.7554 5.65043 18.1519 4.38498 18.1519 2.82592C18.1519 1.26445 16.7554 0 15.032 0C13.3075 0 11.9116 1.26445 11.9116 2.82592C11.9117 4.38498 13.3076 5.65043 15.032 5.65043Z" fill="white"/>
<path d="M17.7351 6.98926H14.9998H12.2644C10.7527 6.98926 9.10797 8.47859 9.10797 9.84793V19.3435C9.10797 20.0282 9.72031 20.5831 10.4764 20.5831C10.8481 20.5831 10.4764 20.5831 11.4313 20.5831L11.9521 28.6811C11.9521 29.4097 12.6042 30.0003 13.4089 30.0003C13.7482 30.0003 14.3745 30.0003 14.9998 30.0003C15.6256 30.0003 16.2519 30.0003 16.5911 30.0003C17.3957 30.0003 18.0479 29.4098 18.0479 28.6811L18.5682 20.5831C19.5236 20.5831 19.1514 20.5831 19.5236 20.5831C20.2791 20.5831 20.892 20.0282 20.892 19.3435V9.84793C20.892 8.47859 19.2473 6.98926 17.7351 6.98926Z" fill="white"/>
<path d="M5.17325 8.73532C6.67852 8.73532 7.89783 7.63082 7.89783 6.26828C7.89783 4.90527 6.67852 3.80078 5.17325 3.80078C3.66746 3.80078 2.44873 4.90533 2.44873 6.26828C2.44873 7.63076 3.66746 8.73532 5.17325 8.73532Z" fill="white"/>
<path d="M24.8821 8.73532C26.3879 8.73532 27.6066 7.63082 27.6066 6.26828C27.6066 4.90527 26.3879 3.80078 24.8821 3.80078C23.3774 3.80078 22.1576 4.90533 22.1576 6.26828C22.1576 7.63076 23.3774 8.73532 24.8821 8.73532Z" fill="white"/>
<path d="M7.31623 9.90332H5.14536H2.75629C1.43635 9.90332 0 11.2049 0 12.4001V20.6927C0 21.291 0.534757 21.7752 1.19505 21.7752C1.51976 21.7752 1.19505 21.7752 2.02877 21.7752L2.48328 28.8477C2.48328 29.4836 3.05305 29.9996 3.75586 29.9996C4.05203 29.9996 4.59863 29.9996 5.14536 29.9996C5.69144 29.9996 6.23862 29.9996 6.5348 29.9996C7.2376 29.9996 7.80737 29.4837 7.80737 28.8477L8.26137 21.7752V21.3739C7.68028 20.855 7.31623 20.1387 7.31623 19.3428V9.90332Z" fill="white"/>
<path d="M27.2437 9.90332H24.8541H22.6838V19.3428C22.6838 20.1387 22.3197 20.855 21.738 21.3739V21.7752L22.1921 28.8477C22.1921 29.4836 22.7625 29.9996 23.4652 29.9996C23.7614 29.9996 24.308 29.9996 24.8541 29.9996C25.4013 29.9996 25.948 29.9996 26.2441 29.9996C26.947 29.9996 27.5163 29.4837 27.5163 28.8477L27.9713 21.7752C28.8049 21.7752 28.4802 21.7752 28.8049 21.7752C29.4652 21.7752 30 21.291 30 20.6927V12.4001C30 11.2049 28.5637 9.90332 27.2437 9.90332Z" fill="white"/>
</svg>
