<svg width="22" height="25" viewBox="0 0 22 25" fill="none" xmlns="http://www.w3.org/2000/svg">
<path d="M8.10421 19.5C7.34864 19.5 4.99467 19.5 3.25063 19.5C2.32139 19.5 1.71816 18.5221 2.13372 17.691L3.20134 15.5557C3.54848 14.8615 3.72921 14.0968 3.72921 13.3205C3.72921 12.3584 3.72921 10.9292 3.72921 9.5C3.72921 7 4.97921 2 11.2292 2C17.4792 2 18.7292 7 18.7292 9.5C18.7292 10.9292 18.7292 12.3584 18.7292 13.3205C18.7292 14.0968 18.91 14.8615 19.2571 15.5557L20.3247 17.691C20.7402 18.5221 20.1358 19.5 19.2067 19.5H14.3542M8.10421 19.5C8.10421 22 9.35421 23.25 11.2292 23.25C13.1042 23.25 14.3542 22 14.3542 19.5M8.10421 19.5C10.0568 19.5 14.3542 19.5 14.3542 19.5" stroke="white" stroke-width="3" stroke-linejoin="round"/>
</svg>
