<svg width="29" height="28" viewBox="0 0 29 28" fill="none" xmlns="http://www.w3.org/2000/svg">
<path d="M14.5001 17.75C16.6968 17.75 18.4776 16.0711 18.4776 14C18.4776 11.9289 16.6968 10.25 14.5001 10.25C12.3035 10.25 10.5227 11.9289 10.5227 14C10.5227 16.0711 12.3035 17.75 14.5001 17.75Z" stroke="white" stroke-width="3"/>
<path d="M3.4444 12.299C4.07091 12.6701 4.47402 13.3024 4.47402 13.9999C4.47401 14.6975 4.0709 15.3297 3.4444 15.7009C3.01807 15.9534 2.74338 16.1552 2.54796 16.3954C2.11984 16.9215 1.9309 17.5863 2.0227 18.2436C2.09153 18.7366 2.40041 19.241 3.01816 20.2499C3.63592 21.2586 3.9448 21.763 4.36324 22.0658C4.92117 22.4694 5.62632 22.6475 6.32356 22.561C6.6418 22.5215 6.96451 22.3981 7.40956 22.1764C8.06383 21.8504 8.84624 21.8374 9.4871 22.1862C10.1279 22.5351 10.5071 23.1804 10.5347 23.8775C10.5535 24.3519 10.6016 24.6771 10.7245 24.9567C10.9936 25.5692 11.5098 26.056 12.1595 26.3097C12.6469 26.5 13.2645 26.5 14.5001 26.5C15.7356 26.5 16.3533 26.5 16.8407 26.3097C17.4903 26.056 18.0066 25.5692 18.2757 24.9567C18.3985 24.6771 18.4466 24.3519 18.4655 23.8776C18.493 23.1804 18.8722 22.5351 19.5131 22.1862C20.1539 21.8375 20.9362 21.8505 21.5904 22.1765C22.0356 22.3983 22.3583 22.5216 22.6765 22.5611C23.3738 22.6477 24.079 22.4695 24.6369 22.0659C25.0553 21.7632 25.3642 21.2587 25.982 20.25C26.257 19.8009 26.4709 19.4517 26.6294 19.159M25.5557 15.701C24.9292 15.3299 24.5262 14.6976 24.526 14.0001C24.526 13.3025 24.9292 12.6701 25.5557 12.299C25.982 12.0465 26.2566 11.8446 26.452 11.6045C26.8801 11.0785 27.0691 10.4136 26.9773 9.75627C26.9085 9.26325 26.5996 8.75885 25.9818 7.75006C25.3641 6.74126 25.0552 6.23687 24.6367 5.93415C24.0788 5.53051 23.3736 5.35238 22.6764 5.43891C22.3582 5.47843 22.0355 5.60175 21.5904 5.82354C20.9361 6.14955 20.1538 6.16255 19.513 5.8137C18.8722 5.46488 18.493 4.81963 18.4655 4.12254C18.4466 3.64815 18.3985 3.32294 18.2757 3.04329C18.0066 2.43073 17.4903 1.94404 16.8407 1.6903C16.3533 1.5 15.7356 1.5 14.5001 1.5C13.2645 1.5 12.6469 1.5 12.1595 1.6903C11.5098 1.94404 10.9936 2.43073 10.7245 3.04329C10.6016 3.32291 10.5535 3.6481 10.5347 4.12242C10.5071 4.81957 10.1279 5.46489 9.48705 5.8137C8.84623 6.16253 8.06388 6.14949 7.40968 5.8235C6.96458 5.6017 6.64184 5.47836 6.32358 5.43885C5.62633 5.35231 4.92118 5.53045 4.36325 5.93409C3.94481 6.23681 3.63594 6.74121 3.01817 7.75C2.74316 8.19911 2.52936 8.54824 2.3707 8.84091" stroke="white" stroke-width="3" stroke-linecap="round"/>
</svg>
